<svg width="17" height="12" viewBox="0 0 17 12" fill="none" xmlns="http://www.w3.org/2000/svg">
<path id="Vector" d="M5.1 5.95C6.74422 5.95 8.075 4.61922 8.075 2.975C8.075 1.33078 6.74422 0 5.1 0C3.45578 0 2.125 1.33078 2.125 2.975C2.125 4.61922 3.45578 5.95 5.1 5.95ZM7.14 6.8H6.91953C6.36703 7.06562 5.75344 7.225 5.1 7.225C4.44656 7.225 3.83563 7.06562 3.28047 6.8H3.06C1.37062 6.8 0 8.17062 0 9.86V10.625C0 11.3289 0.571094 11.9 1.275 11.9H8.925C9.62891 11.9 10.2 11.3289 10.2 10.625V9.86C10.2 8.17062 8.82938 6.8 7.14 6.8ZM12.75 5.95C14.1578 5.95 15.3 4.80781 15.3 3.4C15.3 1.99219 14.1578 0.85 12.75 0.85C11.3422 0.85 10.2 1.99219 10.2 3.4C10.2 4.80781 11.3422 5.95 12.75 5.95ZM14.025 6.8H13.9241C13.5548 6.9275 13.1644 7.0125 12.75 7.0125C12.3356 7.0125 11.9452 6.9275 11.5759 6.8H11.475C10.9331 6.8 10.4338 6.95672 9.99547 7.20906C10.6436 7.90766 11.05 8.83469 11.05 9.86V10.88C11.05 10.9384 11.0367 10.9942 11.0341 11.05H15.725C16.4289 11.05 17 10.4789 17 9.775C17 8.13078 15.6692 6.8 14.025 6.8Z" fill="white"/>
</svg>
